PathFileType	4	(X/Y/Z)	/Users/mathieubourgeois/Desktop/Analyse/Traitement/Sujet_08/Transformed_Static_Sujet_08_Tpose.trc
DataRate	CameraRate	NumFrames	NumMarkers	Units	OrigDataRate	OrigDataStartFrame	OrigNumFrames
120.000000	120.000000	4	35	mm	120.000000	40	324
Frame#	Time	RFHD			RANE			STRN			LANI			LKNE			T10			RHUM			RWRB			C7			LFWT			LTOE			LWRA			LBWT			RBWT			RFWT			LKNI			RKNI			RKNE			LANE			RANI			LHEE			RTOE			LHUM			LRAD			RRAD			RWRA			LWRB			LFHD			LBHD			RBHD			RSHO			LSHO			CLAV			LCAR			RCAR			
		X1	Y1	Z1	X2	Y2	Z2	X3	Y3	Z3	X4	Y4	Z4	X5	Y5	Z5	X6	Y6	Z6	X7	Y7	Z7	X8	Y8	Z8	X9	Y9	Z9	X10	Y10	Z10	X11	Y11	Z11	X12	Y12	Z12	X13	Y13	Z13	X14	Y14	Z14	X15	Y15	Z15	X16	Y16	Z16	X17	Y17	Z17	X18	Y18	Z18	X19	Y19	Z19	X20	Y20	Z20	X21	Y21	Z21	X22	Y22	Z22	X23	Y23	Z23	X24	Y24	Z24	X25	Y25	Z25	X26	Y26	Z26	X27	Y27	Z27	X28	Y28	Z28	X29	Y29	Z29	X30	Y30	Z30	X31	Y31	Z31	X32	Y32	Z32	X33	Y33	Z33	X34	Y34	Z34	X35	Y35	Z35	

41	0.3333333333333333	-778.84521484375	1640.170043945312	385.6818847656248	-844.0089721679688	82.6702117919922	204.7697143554686	-692.0780029296875	1254.512817382812	412.5451354980468	-591.2557373046875	91.87949371337892	232.4502716064452	-527.5420532226562	498.7652587890625	296.8646545410155	-678.1892700195312	1215.914428710938	185.5223693847655	-1087.278686523438	1375.816528320312	253.2835540771482	-1337.978271484375	1455.2529296875	236.7077484130857	-686.6635131835938	1469.8525390625	225.802520751953	-558.8877563476562	968.0366821289062	366.9671630859374	-527.6351318359375	34.60058975219729	399.5871582031249	-20.06652069091799	1410.8701171875	217.3699188232421	-620.7664184570312	1007.414489746094	216.6213989257811	-753.9364624023438	1008.306274414062	217.4612426757811	-795.9130249023438	970.043212890625	375.6502990722655	-629.9281005859375	438.9306945800781	256.0303039550781	-748.451904296875	434.2861938476562	257.5849609374999	-852.4629516601562	507.11865234375	263.2254638671873	-513.9871826171875	80.44461822509767	191.0063934326171	-765.146240234375	101.7697296142578	229.3702087402343	-561.4412231445312	52.58716201782227	154.8221282958984	-813.7736206054688	37.88323974609377	394.5697326660155	-280.2299194335938	1384.687133789062	272.6838073730468	-272.9405822753906	1427.438598632812	207.2523803710936	-1093.661987304688	1413.024169921875	199.2361907958982	-1341.629638671875	1401.2529296875	194.6900939941404	-29.219108581543	1482.473999023438	240.0056610107421	-655.0679931640625	1651.349975585938	418.9780883789061	-606.0758666992188	1635.969116210938	272.3210449218748	-728.1854858398438	1636.184692382812	223.0251159667967	-792.8569946289062	1475.560180664062	251.6597290039061	-572.9793090820312	1475.08349609375	246.7895355224608	-690.6175537109375	1419.034790039062	353.8769531249998	70.76902770996091	1461.192504882812	207.836700439453	-1443.04443359375	1427.793701171875	192.6661529541013	
42	0.3416666666666667	-780.6591796875	1640.279296875	383.7371520996091	-844.011962890625	82.67813110351564	204.7940521240233	-692.1240844726562	1254.507568359375	412.6326904296874	-591.2540283203125	91.87771606445314	232.4447631835937	-527.5189819335938	498.7585754394531	296.8552246093749	-678.2789916992188	1215.909545898438	185.6044158935545	-1087.2919921875	1375.84912109375	253.4536895751951	-1338.008056640625	1455.288818359375	237.0517883300779	-686.4231567382812	1469.876220703125	225.9464569091795	-558.8683471679688	968.0252075195312	367.0597839355468	-527.6270141601562	34.59950637817385	399.5895080566406	-20.06349945068362	1410.760009765625	217.4067993164062	-620.8036499023438	1007.412902832031	216.7667083740233	-753.9505004882812	1008.309631347656	217.6272583007811	-795.8983764648438	970.0299682617188	375.8158264160155	-629.928955078125	438.9340515136719	256.0371398925781	-748.453125	434.2860717773438	257.6434326171874	-852.4786987304688	507.1064147949219	263.3151550292967	-513.9823608398438	80.45126342773439	191.007827758789	-765.1393432617188	101.7666931152344	229.3768615722655	-561.4384155273438	52.59722518920899	154.8262176513671	-813.7713623046875	37.87928390502932	394.5770568847655	-280.2336120605469	1384.598754882812	272.7274475097655	-272.9410095214844	1427.342041015625	207.3141479492186	-1093.691162109375	1413.072631835938	199.4410552978513	-1341.67138671875	1401.324584960938	195.0451354980466	-29.21200752258304	1482.360717773438	240.0512390136718	-657.75341796875	1650.915161132812	420.4877929687498	-605.0906982421875	1635.889282226562	274.9562683105467	-726.2174682617188	1636.457641601562	222.4807891845701	-792.8694458007812	1475.565063476562	251.7513427734373	-572.9678955078125	1475.008178710938	246.8474884033202	-690.7723999023438	1419.03076171875	353.9970703124998	70.77939605712888	1461.08642578125	207.839874267578	-1443.098022460938	1427.876953125	193.0953216552732	
43	0.35	-782.379150390625	1640.288818359375	381.7147521972654	-844.008544921875	82.69084930419923	204.7872161865233	-692.1509399414062	1254.5224609375	412.7033386230468	-591.2411499023438	91.8732147216797	232.4369506835937	-527.5185546875	498.7557373046875	296.862091064453	-678.33837890625	1215.889892578125	185.686798095703	-1087.301025390625	1375.901245117188	253.6458892822263	-1338.032348632812	1455.34375	237.3761291503904	-686.2164306640625	1469.879516601562	226.0963897705076	-558.8493041992188	967.9993286132812	367.1582946777343	-527.631591796875	34.59988021850588	399.5879821777343	-20.05344963073733	1410.657470703125	217.459503173828	-620.846923828125	1007.412109375	216.898727416992	-754.0057373046875	1008.3134765625	217.7765350341795	-795.9021606445312	970.0304565429688	375.9732666015623	-629.9224853515625	438.9368591308594	256.0453796386718	-748.4686279296875	434.28955078125	257.6984863281249	-852.4793090820312	507.1171875	263.4246826171873	-513.984375	80.44307708740236	191.0179290771484	-765.1476440429688	101.7680358886719	229.3848114013671	-561.447998046875	52.58895492553712	154.8281555175781	-813.7698974609375	37.87332916259768	394.5650329589843	-280.1996154785157	1384.510498046875	272.7851562499999	-272.9219055175781	1427.261596679688	207.3602905273436	-1093.718872070312	1413.126098632812	199.6448822021482	-1341.691040039062	1401.392700195312	195.3275146484372	-29.2012634277344	1482.233276367188	240.074234008789	-660.5001831054688	1650.505859375	421.2232360839842	-604.384033203125	1635.789916992188	277.6292114257811	-724.4978637695312	1636.643798828125	222.0982208251951	-792.8626098632812	1475.57568359375	251.8126220703123	-572.9598999023438	1474.94287109375	246.8991851806639	-690.928466796875	1419.031494140625	354.0981445312498	70.76595306396482	1460.96044921875	207.856964111328	-1443.141479492188	1427.948120117188	193.5114135742185	
44	0.3583333333333333	-784.0772705078125	1640.272705078125	379.650939941406	-844.010009765625	82.68907928466798	204.7921447753905	-692.1875610351562	1254.53662109375	412.7895507812499	-591.244873046875	91.87057495117189	232.4437255859374	-527.5206298828125	498.7537231445312	296.8670959472655	-678.39794921875	1215.885986328125	185.7499847412108	-1087.303955078125	1375.957763671875	253.8507690429685	-1338.023803710938	1455.394897460938	237.6970062255857	-685.9852905273438	1469.904052734375	226.217315673828	-558.8375854492188	967.9857177734375	367.2520751953124	-527.6265869140625	34.59864044189455	399.5847778320312	-20.05807876586917	1410.51904296875	217.5053558349609	-620.8936157226562	1007.417114257812	217.0159912109374	-754.041748046875	1008.311828613281	217.9345703124999	-795.9059448242188	970.031494140625	376.137481689453	-629.9163208007812	438.9372253417969	256.0545959472656	-748.46044921875	434.2873229980469	257.7593383789061	-852.4840087890625	507.1084899902344	263.5245361328123	-513.9820556640625	80.44696044921876	191.010025024414	-765.1453247070312	101.7730712890625	229.3921966552734	-561.4515380859375	52.6002311706543	154.8334808349609	-813.7701416015625	37.87387847900393	394.5772705078124	-280.1785278320313	1384.4150390625	272.8561401367186	-272.90478515625	1427.161987304688	207.3846893310546	-1093.748657226562	1413.187255859375	199.898239135742	-1341.71923828125	1401.440795898438	195.6081085205076	-29.168664932251	1482.1083984375	240.1052703857421	-663.3084716796875	1650.033325195312	422.2592773437498	-603.6347045898438	1635.729614257812	280.3098754882811	-723.0144653320312	1636.789428710938	221.8168640136717	-792.8462524414062	1475.601928710938	251.8933715820311	-572.92236328125	1474.878784179688	246.9195709228514	-691.0829467773438	1419.047607421875	354.2018127441405	70.77577972412107	1460.825317382812	207.846206665039	-1443.166625976562	1428.002563476562	193.8627166748044	
